<svg xmlns="http://www.w3.org/2000/svg" width="72" height="32"><path d="M15.63 18.089a4.956 4.956 0 100 9.912 4.956 4.956 0 000-9.912zm0 7.779a2.825 2.825 0 010-5.649c1.558 0 2.825 1.266 2.825 2.825s-1.267 2.824-2.825 2.824zm39.601-7.779a4.956 4.956 0 10-.002 9.912 4.956 4.956 0 00.002-9.912zm0 7.779a2.823 2.823 0 010-5.649 2.825 2.825 0 010 5.649zm14.291-8.861c-.809-1.909-.391-4.452-1.254-4.922-1.779-.966-8.854-.991-15.697-.765.14-.207.188-.436.223-.817.072-.901-.359-1.674-.973-1.724-.613-.053-1.168.639-1.243 1.539-.034.421.001.777.137 1.07-3.202.127-6.229.297-8.509.438-.176-.344-.387-.551-.784-.626.5-.153.91-.769.974-1.539.078-.925-.369-1.716-.996-1.769-.625-.052-1.195.655-1.273 1.58-.064.788.253 1.478.736 1.694-.689.022-.988.256-1.281.827-.796.053-1.288.087-1.373.091l-12.796.466-1.062 1.486v6.739l14.573.027 1.711-8.799 1.083-.027-1.874 9.824H23.235v-7.846l.892-1.357.015-.002-.066.005 7.125-5.125s-.083-.166-.354-.354c-.271-.188-.666-.168-1.207.125-.543.291-8.979 5.082-9.418 5.207-.438.125-1.135.085-2.57.211-2.75.242-8.805 1.082-10.659 1.561-1.856.479-2.979.979-3.688 1.729s-1.248 4.917-1.27 5.708c-.02.791.23 1.166.73 1.541s6.785.625 6.785.625-.66-7.333 6.277-7.291c6.749.041 6.035 7.582 6.035 7.582l27.096-.176c-.275 0-.55-7.312 6.09-7.371 6.938-.064 6.553 6.986 6.553 6.986 2.088-.127 6.492.157 7.344-1.728.538-1.199 1.638-2.314.577-4.823zm-61.96.917l-4.032.514s.15-.75.283-1.25c.114-.426.371-.853.797-1.051.576-.27 3.5-.563 3.545-.42.046.142-.593 2.207-.593 2.207zm57.308-1.958l-.608-2.329 3.365-.938s.341.341.481 1.052c.17.853.256 2.019.256 2.019l-3.494.196z"/><path fill="none" d="M0 0h72v32H0z"/></svg>