<svg xmlns="http://www.w3.org/2000/svg" width="72" height="32"><path d="M19.605 19.357a4.82 4.82 0 00-4.822 4.821 4.823 4.823 0 104.822-4.821zm0 7.569a2.746 2.746 0 01-2.746-2.747c0-1.52 1.229-2.749 2.746-2.749s2.75 1.229 2.75 2.749a2.75 2.75 0 01-2.75 2.747zm36.44-7.569a4.821 4.821 0 100 9.643 4.822 4.822 0 000-9.643zm0 7.569a2.747 2.747 0 11-.001-5.495 2.747 2.747 0 01.001 5.495zm7.258-8.063c-.18-1.031-.92-1.446-.92-1.446s.127-2.69.045-3.482c-.176-1.579-2.844-6.337-4.41-7.222-.146-.082-.039-.609-.039-.609l-.631.045s-8.139-1.734-17.627-1.132c-4.275.272-4.393.478-6.799 1.263-2.566.835-9.748 4.909-11.273 5.801-1.039.611-1.791.139-6.102 1.464-2.938.903-3.582 1.351-4.279 1.782-.699.434-2.416 2.411-2.518 3.699-.059.733-.127 2.479-.127 2.479s-.104 1.266.043 1.782 1.252 1.41 2.309 1.394c1.055-.017 2.584-.003 2.584-.003s.234-6.589 6.246-6.589c6.148 0 5.969 6.909 5.969 6.909l1.34.001-2.588-11.481a.712.712 0 01-.107-.396c.004-.745 3.717-3.28 8.586-5.058C37.87 6.29 43.56 6.639 43.56 6.639l-.787 6.225s-16.045.914-16.912.919c-.039 0-.08.002-.125.006l2.488 11.215 13.104-.005 2.039-12.069 1.279-.122.619-6.168s7.529.571 8.643 1.105c1.119.537 1.729 1.875 1.729 2.396s-.027 1.411-.842 1.666c-.959.297-.857.495-10.148 1l-2.016 12.209 7.283.014s-.133-6.895 6.104-6.895c5.457-.003 6.014 6.236 6.014 6.236s1.18-1.12 1.352-1.814c.092-.382-.24-1.401-.24-1.401s.479-.474.159-2.293zm-49.733-.599l-2.99.074s-.545-.019-.58-.3c-.033-.234.814-1.514 1.367-1.688.551-.173 1.223-.16 1.727-.112.504.052 1.008.134 1.055.607.046.473-.579 1.419-.579 1.419zm47.823-1.951s-.795.019-1.68-1.176c-.352-.47-.938-1.493-.793-2.065.143-.572 1.797-.753 1.797-.753s.713.882.789 1.612c.088.882-.113 2.382-.113 2.382z"/><path fill="none" d="M0 0h72v32H0z"/></svg>