<svg xmlns="http://www.w3.org/2000/svg" width="72" height="32"><path d="M54.67 17.197a4.9 4.9 0 00-4.901 4.9c0 2.705 2.194 4.902 4.901 4.902s4.902-2.197 4.902-4.902c0-2.706-2.195-4.9-4.902-4.9zm0 7.694a2.795 2.795 0 11.005-5.587 2.795 2.795 0 01-.005 5.587zm-42.299-7.694a4.9 4.9 0 00-4.901 4.9C7.47 24.803 9.664 27 12.371 27s4.902-2.197 4.902-4.902a4.902 4.902 0 00-4.902-4.901zm0 7.694a2.794 2.794 0 11.004-5.588 2.794 2.794 0 01-.004 5.588zm58.069-6.692c.037-.969-.817-2.084-.817-2.084s.111-2.641-.075-3.496-.706-1.635-.706-1.635-3.13-3.68-5.542-5.059c-.586-.336-6.479-1.551-12.244-1.66-3.164-.062-13.773-.111-18.256.979-3.979.965-9.501 5.092-11.026 5.391-1.525.297-5.75 1.129-9.171 1.723-3.422.596-8.39 1.783-8.985 2.379-.595.596-1.094 2.756-1.318 3.053-.223.297-.558.41-.669.818-.112.41-.074.969 0 1.34s.372 2.082.818 2.381c.447.297 3.605.939 3.605.939s-.534-7.531 6.345-7.471c6.997.061 6.345 7.234 6.345 7.234l4.213.068-.085-7.76 1.753-3.377-.021-.057c-.823-1.275 3.436-2.912 5.371-4.049 2.957-1.738 8.431-1.881 8.431-1.881l-1.005 5.637-11.544.398-1.829 3.475.157 7.65 13.844.047-.338-5.104.717-6.422 1.138-.064-.715 6.514.384 5.074 8.823-.211s-.082-5.979 4.823-7.143l.487-4.811-13.609.495.5-5.613 10.692-.16c.37.236 2.414 5.281 2.414 5.281l.915-.021-.518 4.685c.229-.023.449-.058.697-.062 6.521-.119 6.641 6.996 6.641 6.996s7.501-.773 8.059-1.031c.558-.262.819-.857.819-.857l-.075-.744c0-.002.52-.818.557-1.785zm-64.829-1.25c-.5.5-2.366.891-2.366.891s.276-.924.526-1.924 1.42-1.129 1.42-1.129l1.259-.227c.001.001-.339 1.889-.839 2.389zm50.281-5.969l-2.766-5.084s9.217.08 12.42 4.854c.191.285-9.654.23-9.654.23zm12.994 3.094c-.06.859-.172 1.891-.172 1.891s-1.531-.312-1.594-.875c-.069-.621 0-2 .25-2.375s1.156-.703 1.156-.703.438.937.36 2.062z"/><path fill="none" d="M0-2h72v32H0z"/></svg>