<svg xmlns="http://www.w3.org/2000/svg" width="72" height="32"><path d="M14.183 16.647a5.677 5.677 0 100 11.352 5.677 5.677 0 000-11.352zm0 8.911a3.234 3.234 0 010-6.47 3.236 3.236 0 010 6.47zm43.252-8.911a5.677 5.677 0 10-.002 11.352 5.677 5.677 0 00.002-11.352zm0 8.911a3.234 3.234 0 110-6.468 3.234 3.234 0 010 6.468zm-32.586-14.69l-.816 1.57-.578 10.354 13.908-.16 1.514-12.054-14.028.29zm45.308 6.311c-.162-.666-.79-1.007-.79-1.007s.095-3.565-.072-4.476c-.665-3.629-5.247-7.061-5.247-7.061s-.071-1.24-1.365-1.456c-.069-.012-.149-.02-.225-.03-.842-.493-3.442-1.982-4.497-2.21C53.212-.082 43.589.134 39.729.471c-2.705.236-4.475 1.957-4.884 2.395-1.285.221-2.434.612-3.062.822-4.792 1.605-9.228 6.373-12.055 6.604-.949.078-10.541 1.414-14.031 2.488-2.086.643-2.273 1.314-3.15 3.292-.229.518-.877 2.142-.877 2.142l2.52-.01s.359.859.297 1.422c-.052.467-.154 1.014-.391 1.25-.062.062-2.047.047-2.156-.062l-.03-.031c.377.57 1.75 1.417 2.36 1.91.398.322 3.1.531 3.1.531s-.204-8.158 6.771-8.158 7.015 7.75 7.015 7.75l1.206-.018.677-10.461.698-1.445s4.066-4.412 8.014-5.882c4.075-1.518 9.048-1.416 9.048-1.416l-1.002 6.95.032-.001-1.521 12.09 12.052-.103s.102-5.685 4.618-7.259l-.023.007-1.32-4.938 1.223-.036 1.271 4.633 1.369-.074c7.016 0 6.688 7.789 6.688 7.789s3.958-.598 5.752-2.365c.596-.59.381-2.444.219-3.108zM7.142 15.61c-1.014.545-3.667.209-3.766.109.358-.707.622-1.711 1.438-1.875l3.562-.047c.007 1.145-.387 1.358-1.234 1.813zm35.125-5.199l.628-6.791 8.943.078 1.692 6.434-11.263.279zm5.346-7.984c-6.823 0-9.394.107-10.977.234.751-.52 1.839-1.076 3.179-1.193 4.048-.353 13.503-.505 17.936.45.446.096 1.345.529 2.243 1.005-2.157-.156-7.736-.496-12.381-.496zm14.928 7.449c-.475.193-6.441.234-6.441.234l-2.136-6.307s4.688.137 5.533.367c.944.257 4.309 5.19 3.044 5.706zm6.142 3.924c-.305.051-2.499.133-2.625.006-.128-.127-.357-1.5-.103-2.365s2.169-.975 2.423-.822.61 3.13.305 3.181z"/><path fill="none" d="M0-2h72v32H0z"/></svg>