<svg xmlns="http://www.w3.org/2000/svg" width="72" height="32"><path d="M13.532 19.198a4.899 4.899 0 00-4.901 4.899 4.902 4.902 0 009.803 0 4.9 4.9 0 00-4.902-4.899zm0 7.694a2.794 2.794 0 11.003-5.587 2.794 2.794 0 01-.003 5.587zm45-7.694a4.901 4.901 0 10.003 9.8 4.901 4.901 0 00-.003-9.8zm0 7.694a2.794 2.794 0 010-5.589 2.795 2.795 0 110 5.589zm10.998-5.627c-.255-.07-.01-1.921 0-2.24s-.352-.622-.352-.622.05-2.339-.146-5.162c-.194-2.825-4.091-8.134-5.697-8.719-1.607-.584-19.482-1.123-25.813-.729-2.293.142-4.952.184-8.084.779-3.092.588-12.322 5.989-15.049 7.11-2.728 1.119-8.699 3.635-10.325 5.016-1.129.959-2.121 2.38-2.187 3.447-.062 1.001.079 2.662.663 4.026.584 1.365 4.341 1.435 4.341 1.435s-.384-7.896 6.868-7.965c6.943-.065 6.387 8.213 6.387 8.213l1.37-.03-1.078-6.312.969-6.266-5.066.039 5.61-3.379-.544 3.34.844-.047-.876 6.189 1.07 6.438 13.443-.146 1.017-12.793-14.605.33.514-3.764s3.32-2.271 6.204-3.201c3.065-.99 8.03-.934 8.03-.934l-.145 7.569 1.11-.096.037-7.487 11.717.031 2.234 7.074-13.988.382-1.01 12.872 12.303-.146 3.52-9.308-.764-3.774 1.05-.082-2.181-7.056s7.492-.195 10.238.476c2.746.67 4.226 4.586 4.289 5.226.063.638-.511.829-.511.829l-11.836.525.771 3.819-3.494 9.333 1.413.007s-.321-7.468 6.083-7.713c7.558-.289 7.28 6.79 7.28 6.79s3.781-.245 4.268-.44c.487-.194.657-2.173.703-2.43.07-.384-.21-.349-.595-.454zM5.324 20.033c-.275.574-1.073 1.572-1.073 1.572l-1.622-.05s-.175-1.073 0-1.797.598-1.148.873-1.397 1.972-.075 2.096.025c.261.211-.093 1.269-.274 1.647zm63.09-3.247s-1.92.188-2.014 0 .051-2.195.098-2.569 1.775-.85 1.775-.85c.188.984.141 3.419.141 3.419z"/><path fill="none" d="M0 0h72v32H0z"/></svg>